<svg width="75" height="79" viewBox="0 0 75 79" fill="none" xmlns="http://www.w3.org/2000/svg">
<path d="M35.5915 2.5898C36.539 1.30404 38.461 1.30404 39.4085 2.5898C40.2359 3.71246 41.8488 3.88198 42.8914 2.95587C44.0856 1.89521 45.9656 2.29482 46.625 3.74947C47.2009 5.01961 48.7433 5.52078 49.9557 4.83168C51.3443 4.04248 53.1001 4.82422 53.4428 6.38421C53.742 7.74632 55.1465 8.55721 56.4757 8.13525C57.998 7.652 59.5529 8.78172 59.5637 10.3789C59.5732 11.7734 60.7784 12.8586 62.1663 12.7222C63.7558 12.566 65.0419 13.9943 64.7204 15.5588C64.4397 16.9249 65.3929 18.2369 66.7789 18.3921C68.3661 18.5698 69.3271 20.2343 68.6874 21.6977C68.1288 22.9755 68.7884 24.4571 70.1118 24.897C71.6274 25.4009 72.2214 27.2288 71.2913 28.5273C70.4793 29.661 70.8165 31.2474 72.0195 31.9528C73.3972 32.7608 73.5981 34.6722 72.4185 35.749C71.3884 36.6891 71.3884 38.3109 72.4185 39.251C73.5981 40.3278 73.3972 42.2392 72.0195 43.0472C70.8165 43.7526 70.4793 45.339 71.2913 46.4727C72.2214 47.7712 71.6274 49.5991 70.1118 50.103C68.7884 50.5429 68.1288 52.0245 68.6874 53.3023C69.3271 54.7657 68.3661 56.4302 66.7789 56.6079C65.3929 56.7631 64.4397 58.0751 64.7204 59.4412C65.0419 61.0057 63.7558 62.434 62.1663 62.2778C60.7784 62.1414 59.5732 63.2266 59.5637 64.6211C59.5529 66.2183 57.998 67.348 56.4757 66.8647C55.1465 66.4428 53.742 67.2537 53.4428 68.6158C53.1001 70.1758 51.3443 70.9575 49.9557 70.1683C48.7433 69.4792 47.2009 69.9804 46.625 71.2505C45.9656 72.7052 44.0856 73.1048 42.8914 72.0441C41.8488 71.118 40.2359 71.2875 39.4085 72.4102C38.461 73.696 36.539 73.696 35.5915 72.4102C34.7641 71.2875 33.1512 71.118 32.1086 72.0441C30.9144 73.1048 29.0344 72.7052 28.3749 71.2505C27.7991 69.9804 26.2567 69.4792 25.0443 70.1683C23.6557 70.9575 21.8999 70.1758 21.5572 68.6158C21.258 67.2537 19.8535 66.4428 18.5243 66.8647C17.002 67.348 15.4471 66.2183 15.4363 64.6212C15.4268 63.2266 14.2216 62.1414 12.8337 62.2778C11.2442 62.434 9.95813 61.0057 10.2796 59.4412C10.5603 58.0751 9.60706 56.7631 8.22114 56.6079C6.63388 56.4302 5.67288 54.7657 6.31262 53.3023C6.87121 52.0245 6.21156 50.5429 4.88819 50.103C3.37257 49.5991 2.77864 47.7712 3.70866 46.4727C4.52072 45.339 4.18353 43.7526 2.98053 43.0472C1.60278 42.2392 1.40188 40.3278 2.58154 39.251C3.61158 38.3109 3.61158 36.6891 2.58154 35.749C1.40188 34.6722 1.60278 32.7608 2.98053 31.9528C4.18353 31.2474 4.52072 29.661 3.70866 28.5273C2.77864 27.2288 3.37257 25.4009 4.88819 24.897C6.21157 24.4571 6.87121 22.9755 6.31262 21.6977C5.67288 20.2343 6.63388 18.5698 8.22114 18.3921C9.60706 18.2369 10.5603 16.9249 10.2796 15.5588C9.95813 13.9943 11.2442 12.566 12.8337 12.7222C14.2216 12.8586 15.4268 11.7734 15.4363 10.3789C15.4471 8.78172 17.002 7.652 18.5243 8.13525C19.8535 8.55721 21.258 7.74632 21.5572 6.38421C21.8999 4.82422 23.6557 4.04248 25.0443 4.83168C26.2567 5.52078 27.7991 5.01961 28.375 3.74947C29.0344 2.29482 30.9144 1.89521 32.1086 2.95587C33.1512 3.88198 34.7641 3.71246 35.5915 2.5898Z" fill="#FFF0EA"/>
<path d="M66.7387 51.2461H32.1876C31.8687 51.2461 31.5716 51.3781 31.3626 51.6201C31.1537 51.8511 31.0547 52.1701 31.0986 52.4781L33.0677 68.9341H65.8587L67.8387 52.4781C67.8716 52.1701 67.7727 51.8511 67.5637 51.6201C67.3547 51.3781 67.0577 51.2461 66.7387 51.2461Z" fill="#FFA7A7"/>
<path d="M64.3629 71.1338H34.5639C32.6499 71.1338 31.0879 72.6958 31.0879 74.6208C31.0879 76.5458 32.6499 78.1078 34.5639 78.1078H64.3629C66.277 78.1078 67.8389 76.5458 67.8389 74.6208C67.8389 72.6958 66.277 71.1338 64.3629 71.1338Z" fill="#FFA7A7"/>
<path d="M63.4763 44.4197L58.6486 44.0898C56.2255 46.4179 52.9433 47.8583 49.3256 47.8583C45.7082 47.8583 42.4263 46.4181 40.0033 44.0904L35.1835 44.4197C30.4586 44.7425 26.7568 48.7053 26.7568 53.4415V65.9728C26.7568 68.3528 27.9034 70.46 29.664 71.8023C30.0129 71.1962 30.4658 70.6667 31.0047 70.2276L28.909 52.7401C28.7962 51.8039 29.0911 50.8618 29.7174 50.1566C30.3437 49.4519 31.2433 49.0474 32.1854 49.0474H66.7441C67.6862 49.0474 68.5858 49.4519 69.2121 50.1566C69.8384 50.8618 70.1333 51.8039 70.0205 52.7411L67.9246 70.2302C68.4183 70.6331 68.8449 71.1072 69.1808 71.6522C70.8353 70.3059 71.903 68.2674 71.903 65.9728V53.4415C71.903 48.7053 68.2013 44.7425 63.4763 44.4197Z" fill="#FF3636"/>
<path d="M49.3258 45.6579C55.5528 45.6579 60.6008 40.6099 60.6008 34.3829C60.6008 28.1559 55.5528 23.1079 49.3258 23.1079C43.0988 23.1079 38.0508 28.1559 38.0508 34.3829C38.0508 40.6099 43.0988 45.6579 49.3258 45.6579Z" fill="#FF3636"/>
</svg>
