<svg width="75" height="75" viewBox="0 0 75 75" fill="none" xmlns="http://www.w3.org/2000/svg">
<path d="M35.5915 2.5898C36.539 1.30404 38.461 1.30404 39.4085 2.5898C40.2359 3.71246 41.8488 3.88198 42.8914 2.95587C44.0856 1.89521 45.9656 2.29482 46.625 3.74947C47.2009 5.01961 48.7433 5.52078 49.9557 4.83168C51.3443 4.04248 53.1001 4.82422 53.4428 6.38421C53.742 7.74632 55.1465 8.55721 56.4757 8.13525C57.998 7.652 59.5529 8.78172 59.5637 10.3789C59.5732 11.7734 60.7784 12.8586 62.1663 12.7222C63.7558 12.566 65.0419 13.9943 64.7204 15.5588C64.4397 16.9249 65.3929 18.2369 66.7789 18.3921C68.3661 18.5698 69.3271 20.2343 68.6874 21.6977C68.1288 22.9755 68.7884 24.4571 70.1118 24.897C71.6274 25.4009 72.2214 27.2288 71.2913 28.5273C70.4793 29.661 70.8165 31.2474 72.0195 31.9528C73.3972 32.7608 73.5981 34.6722 72.4185 35.749C71.3884 36.6891 71.3884 38.3109 72.4185 39.251C73.5981 40.3278 73.3972 42.2392 72.0195 43.0472C70.8165 43.7526 70.4793 45.339 71.2913 46.4727C72.2214 47.7712 71.6274 49.5991 70.1118 50.103C68.7884 50.5429 68.1288 52.0245 68.6874 53.3023C69.3271 54.7657 68.3661 56.4302 66.7789 56.6079C65.3929 56.7631 64.4397 58.0751 64.7204 59.4412C65.0419 61.0057 63.7558 62.434 62.1663 62.2778C60.7784 62.1414 59.5732 63.2266 59.5637 64.6211C59.5529 66.2183 57.998 67.348 56.4757 66.8647C55.1465 66.4428 53.742 67.2537 53.4428 68.6158C53.1001 70.1758 51.3443 70.9575 49.9557 70.1683C48.7433 69.4792 47.2009 69.9804 46.625 71.2505C45.9656 72.7052 44.0856 73.1048 42.8914 72.0441C41.8488 71.118 40.2359 71.2875 39.4085 72.4102C38.461 73.696 36.539 73.696 35.5915 72.4102C34.7641 71.2875 33.1512 71.118 32.1086 72.0441C30.9144 73.1048 29.0344 72.7052 28.3749 71.2505C27.7991 69.9804 26.2567 69.4792 25.0443 70.1683C23.6557 70.9575 21.8999 70.1758 21.5572 68.6158C21.258 67.2537 19.8535 66.4428 18.5243 66.8647C17.002 67.348 15.4471 66.2183 15.4363 64.6212C15.4268 63.2266 14.2216 62.1414 12.8337 62.2778C11.2442 62.434 9.95813 61.0057 10.2796 59.4412C10.5603 58.0751 9.60706 56.7631 8.22114 56.6079C6.63388 56.4302 5.67288 54.7657 6.31262 53.3023C6.87121 52.0245 6.21156 50.5429 4.88819 50.103C3.37257 49.5991 2.77864 47.7712 3.70866 46.4727C4.52072 45.339 4.18353 43.7526 2.98053 43.0472C1.60278 42.2392 1.40188 40.3278 2.58154 39.251C3.61158 38.3109 3.61158 36.6891 2.58154 35.749C1.40188 34.6722 1.60278 32.7608 2.98053 31.9528C4.18353 31.2474 4.52072 29.661 3.70866 28.5273C2.77864 27.2288 3.37257 25.4009 4.88819 24.897C6.21157 24.4571 6.87121 22.9755 6.31262 21.6977C5.67288 20.2343 6.63388 18.5698 8.22114 18.3921C9.60706 18.2369 10.5603 16.9249 10.2796 15.5588C9.95813 13.9943 11.2442 12.566 12.8337 12.7222C14.2216 12.8586 15.4268 11.7734 15.4363 10.3789C15.4471 8.78172 17.002 7.652 18.5243 8.13525C19.8535 8.55721 21.258 7.74632 21.5572 6.38421C21.8999 4.82422 23.6557 4.04248 25.0443 4.83168C26.2567 5.52078 27.7991 5.01961 28.375 3.74947C29.0344 2.29482 30.9144 1.89521 32.1086 2.95587C33.1512 3.88198 34.7641 3.71246 35.5915 2.5898Z" fill="#F9EAFF"/>
<path d="M55.2962 58.7999C59.3301 58.7999 62.6002 55.5298 62.6002 51.4959C62.6002 47.462 59.3301 44.1919 55.2962 44.1919C51.2623 44.1919 47.9922 47.462 47.9922 51.4959C47.9922 55.5298 51.2623 58.7999 55.2962 58.7999Z" fill="#E399FE"/>
<path d="M51.1201 60.2561V66.8001L55.2961 63.6721L59.4721 66.8001V60.2561C58.1676 60.8774 56.741 61.1998 55.2961 61.1998C53.8513 61.1998 52.4246 60.8774 51.1201 60.2561Z" fill="#E399FE"/>
<path d="M23 57.2H47.456C46.2411 55.5467 45.5879 53.5477 45.592 51.496C45.592 48.9223 46.6144 46.4541 48.4342 44.6342C50.2541 42.8144 52.7223 41.792 55.296 41.792C57.8697 41.792 60.3379 42.8144 62.1578 44.6342C63.9776 46.4541 65 48.9223 65 51.496C65.0041 53.5477 64.3509 55.5467 63.136 57.2H67V30H23V57.2ZM39.4 36H50.6C50.9183 36 51.2235 36.1264 51.4485 36.3515C51.6736 36.5765 51.8 36.8817 51.8 37.2C51.8 37.5183 51.6736 37.8235 51.4485 38.0485C51.2235 38.2736 50.9183 38.4 50.6 38.4H39.4C39.0817 38.4 38.7765 38.2736 38.5515 38.0485C38.3264 37.8235 38.2 37.5183 38.2 37.2C38.2 36.8817 38.3264 36.5765 38.5515 36.3515C38.7765 36.1264 39.0817 36 39.4 36ZM32.2 41.6H44.2C44.5183 41.6 44.8235 41.7264 45.0485 41.9515C45.2736 42.1765 45.4 42.4817 45.4 42.8C45.4 43.1183 45.2736 43.4235 45.0485 43.6485C44.8235 43.8736 44.5183 44 44.2 44H32.2C31.8817 44 31.5765 43.8736 31.3515 43.6485C31.1264 43.4235 31 43.1183 31 42.8C31 42.4817 31.1264 42.1765 31.3515 41.9515C31.5765 41.7264 31.8817 41.6 32.2 41.6ZM32.2 47.2H44.2C44.5183 47.2 44.8235 47.3264 45.0485 47.5515C45.2736 47.7765 45.4 48.0817 45.4 48.4C45.4 48.7183 45.2736 49.0235 45.0485 49.2485C44.8235 49.4736 44.5183 49.6 44.2 49.6H32.2C31.8817 49.6 31.5765 49.4736 31.3515 49.2485C31.1264 49.0235 31 48.7183 31 48.4C31 48.0817 31.1264 47.7765 31.3515 47.5515C31.5765 47.3264 31.8817 47.2 32.2 47.2Z" fill="#D25AFF"/>
</svg>
