<svg width="75" height="75" viewBox="0 0 75 75" fill="none" xmlns="http://www.w3.org/2000/svg">
<path d="M35.5915 2.5898C36.539 1.30404 38.461 1.30404 39.4085 2.5898C40.2359 3.71246 41.8488 3.88198 42.8914 2.95587C44.0856 1.89521 45.9656 2.29482 46.625 3.74947C47.2009 5.01961 48.7433 5.52078 49.9557 4.83168C51.3443 4.04248 53.1001 4.82422 53.4428 6.38421C53.742 7.74632 55.1465 8.55721 56.4757 8.13525C57.998 7.652 59.5529 8.78172 59.5637 10.3789C59.5732 11.7734 60.7784 12.8586 62.1663 12.7222C63.7558 12.566 65.0419 13.9943 64.7204 15.5588C64.4397 16.9249 65.3929 18.2369 66.7789 18.3921C68.3661 18.5698 69.3271 20.2343 68.6874 21.6977C68.1288 22.9755 68.7884 24.4571 70.1118 24.897C71.6274 25.4009 72.2214 27.2288 71.2913 28.5273C70.4793 29.661 70.8165 31.2474 72.0195 31.9528C73.3972 32.7608 73.5981 34.6722 72.4185 35.749C71.3884 36.6891 71.3884 38.3109 72.4185 39.251C73.5981 40.3278 73.3972 42.2392 72.0195 43.0472C70.8165 43.7526 70.4793 45.339 71.2913 46.4727C72.2214 47.7712 71.6274 49.5991 70.1118 50.103C68.7884 50.5429 68.1288 52.0245 68.6874 53.3023C69.3271 54.7657 68.3661 56.4302 66.7789 56.6079C65.3929 56.7631 64.4397 58.0751 64.7204 59.4412C65.0419 61.0057 63.7558 62.434 62.1663 62.2778C60.7784 62.1414 59.5732 63.2266 59.5637 64.6211C59.5529 66.2183 57.998 67.348 56.4757 66.8647C55.1465 66.4428 53.742 67.2537 53.4428 68.6158C53.1001 70.1758 51.3443 70.9575 49.9557 70.1683C48.7433 69.4792 47.2009 69.9804 46.625 71.2505C45.9656 72.7052 44.0856 73.1048 42.8914 72.0441C41.8488 71.118 40.2359 71.2875 39.4085 72.4102C38.461 73.696 36.539 73.696 35.5915 72.4102C34.7641 71.2875 33.1512 71.118 32.1086 72.0441C30.9144 73.1048 29.0344 72.7052 28.3749 71.2505C27.7991 69.9804 26.2567 69.4792 25.0443 70.1683C23.6557 70.9575 21.8999 70.1758 21.5572 68.6158C21.258 67.2537 19.8535 66.4428 18.5243 66.8647C17.002 67.348 15.4471 66.2183 15.4363 64.6212C15.4268 63.2266 14.2216 62.1414 12.8337 62.2778C11.2442 62.434 9.95813 61.0057 10.2796 59.4412C10.5603 58.0751 9.60706 56.7631 8.22114 56.6079C6.63388 56.4302 5.67288 54.7657 6.31262 53.3023C6.87121 52.0245 6.21156 50.5429 4.88819 50.103C3.37257 49.5991 2.77864 47.7712 3.70866 46.4727C4.52072 45.339 4.18353 43.7526 2.98053 43.0472C1.60278 42.2392 1.40188 40.3278 2.58154 39.251C3.61158 38.3109 3.61158 36.6891 2.58154 35.749C1.40188 34.6722 1.60278 32.7608 2.98053 31.9528C4.18353 31.2474 4.52072 29.661 3.70866 28.5273C2.77864 27.2288 3.37257 25.4009 4.88819 24.897C6.21157 24.4571 6.87121 22.9755 6.31262 21.6977C5.67288 20.2343 6.63388 18.5698 8.22114 18.3921C9.60706 18.2369 10.5603 16.9249 10.2796 15.5588C9.95813 13.9943 11.2442 12.566 12.8337 12.7222C14.2216 12.8586 15.4268 11.7734 15.4363 10.3789C15.4471 8.78172 17.002 7.652 18.5243 8.13525C19.8535 8.55721 21.258 7.74632 21.5572 6.38421C21.8999 4.82422 23.6557 4.04248 25.0443 4.83168C26.2567 5.52078 27.7991 5.01961 28.375 3.74947C29.0344 2.29482 30.9144 1.89521 32.1086 2.95587C33.1512 3.88198 34.7641 3.71246 35.5915 2.5898Z" fill="#C7FEEB"/>
<path d="M52.5431 24.2879H51.2576C51.1033 24.2879 51.0005 24.185 51.0005 24.0308C51.0005 23.8765 51.1033 23.7737 51.2576 23.7737H52.5431C52.6973 23.7737 52.8002 23.8765 52.8002 24.0308C52.8002 24.185 52.6459 24.2879 52.5431 24.2879Z" fill="#007C50"/>
<path d="M50.7437 22.8997C50.6923 22.8997 50.5895 22.8483 50.5381 22.7969C50.4352 22.694 50.4352 22.4883 50.5381 22.3855L51.4636 21.4599C51.515 21.3571 51.7207 21.3571 51.8236 21.4599C51.9264 21.5628 51.9264 21.7685 51.8236 21.8713L50.898 22.7969C50.898 22.8483 50.8466 22.8997 50.7437 22.8997Z" fill="#007C50"/>
<path d="M51.6175 26.7046C51.5661 26.7046 51.4633 26.6532 51.4119 26.6018L50.4863 25.6762C50.3835 25.5734 50.3835 25.3677 50.4863 25.2649C50.5891 25.162 50.7948 25.162 50.8977 25.2649L51.8232 26.1904C51.9261 26.2933 51.9261 26.4989 51.8232 26.6018C51.8232 26.7046 51.7204 26.7046 51.6175 26.7046Z" fill="#007C50"/>
<path d="M49.3036 22.9511V20.2773C49.3036 20.1744 49.2522 20.0716 49.098 20.0202C48.9951 19.9688 48.8409 20.0202 48.7894 20.123C48.7894 20.123 47.0412 22.1798 43.6475 22.1798H40.408C39.9967 22.1798 39.6368 22.3855 39.4311 22.694C39.4311 22.694 39.4311 22.694 39.3797 22.694H38.814C38.6084 22.694 38.4541 22.8482 38.4541 23.0539V25.1107C38.4541 25.3164 38.6084 25.4706 38.814 25.4706H39.3797C39.5339 25.6763 39.791 25.8306 40.0481 25.9334L41.745 30.4069C41.7964 30.5612 41.9506 30.7154 42.1563 30.7154H43.8017C43.956 30.7154 44.1103 30.6126 44.2131 30.4583C44.2645 30.3041 44.2645 30.0984 44.1617 29.9956L43.2875 29.0186L42.1563 26.0363H43.6475C47.0412 26.0363 48.7894 28.093 48.7894 28.093C48.8409 28.1445 48.9437 28.1959 48.9951 28.1959C49.0465 28.1959 49.0465 28.1959 49.098 28.1959C49.2008 28.1445 49.3036 28.0416 49.3036 27.9388V25.265C49.8178 25.1621 50.1778 24.6994 50.1778 24.1337C50.1778 23.5681 49.8178 23.0539 49.3036 22.9511Z" fill="#007C50"/>
<path d="M25.3937 53.957C24.571 51.6432 24.0568 49.175 24.0568 46.604C24.0568 38.017 29.1473 30.664 36.4489 27.2703V25.0078C28.0161 28.4529 22 36.8343 22 46.5526C22 49.7406 22.617 52.7744 23.7997 55.4996L25.3937 53.957Z" fill="#007C50"/>
<path d="M66.5805 46.5527C66.5805 48.918 66.1692 51.1805 65.5007 53.2887L67.1461 54.9341C68.1745 52.3117 68.6887 49.4836 68.6887 46.5527C68.6887 36.6802 62.5698 28.2474 53.8799 24.8022V27.0647C61.3871 30.407 66.5805 37.9142 66.5805 46.5527Z" fill="#007C50"/>
<path d="M53.6747 66.1948C51.1037 67.2746 48.327 67.8917 45.3447 67.8917C42.6195 67.8917 39.9971 67.3775 37.5803 66.4519L35.9863 68.0459C38.8658 69.28 42.0024 69.9999 45.2933 69.9999C48.8412 69.9999 52.1835 69.2286 55.1658 67.7888L53.6747 66.1948Z" fill="#007C50"/>
<path d="M67.609 59.562C66.7863 56.4768 63.6497 54.6257 60.5131 55.4484C57.4279 56.2711 55.5768 59.4077 56.3996 62.5443C56.8109 64.0355 57.685 65.2181 58.8677 65.938L57.3251 68.2519L63.444 66.6578C66.5806 65.8351 68.4832 62.6471 67.609 59.562ZM62.4156 63.2127H59.3305V62.2872H62.4156V63.2127ZM65.038 61.3616H59.3305V60.4361H65.0895V61.3616H65.038ZM65.038 59.6134H59.3305V58.6878H65.0895V59.6134H65.038Z" fill="#007C50"/>
<path d="M25.5993 59.7676H23.5425V65.3723H25.5993V59.7676Z" fill="#007C50"/>
<path d="M26.6279 59.7161L29.6617 56.271L30.9472 56.5281L30.0216 59.459H34.5465L33.3125 65.3723H26.6279" fill="#007C50"/>
<path d="M55.5254 45.1643H53.8285C53.6228 44.1359 53.2115 43.2104 52.6459 42.3363L54.0342 40.9479C54.137 40.8451 54.1884 40.6908 54.1884 40.588C54.1884 40.4337 54.137 40.3309 54.0342 40.228L52.1831 38.3255C51.9774 38.1198 51.6175 38.1198 51.4118 38.3255L49.972 39.7653C49.2007 39.3025 48.3266 38.9426 47.4011 38.6855V36.8858C47.4011 36.5773 47.144 36.3716 46.8869 36.3716H44.213C43.9045 36.3716 43.6988 36.6287 43.6988 36.8858V38.634C42.7219 38.8397 41.8477 39.1997 41.0764 39.7139L39.5339 38.1713C39.3282 37.9656 38.9682 37.9656 38.7626 38.1713L36.9115 40.0224C36.8086 40.1252 36.7572 40.2795 36.7572 40.3823C36.7572 40.4851 36.8086 40.6394 36.9115 40.7422L38.4026 42.2334C37.837 43.1075 37.4257 44.0331 37.1686 45.0615H35.4717C35.1632 45.0615 34.9575 45.3186 34.9575 45.5757V48.2495C34.9575 48.558 35.2146 48.7637 35.4717 48.7637H37.1686C37.3742 49.6893 37.7342 50.5634 38.197 51.3347L36.86 52.6716C36.7572 52.7744 36.7058 52.9287 36.7058 53.0315C36.7058 53.1344 36.7572 53.2886 36.86 53.3915L38.7111 55.2426C38.814 55.3454 38.9682 55.3968 39.0711 55.3968C39.2253 55.3968 39.3282 55.3454 39.431 55.2426L40.7165 53.9571C41.5906 54.5227 42.5676 54.934 43.596 55.1911V56.7337C43.596 57.0423 43.8531 57.2479 44.1102 57.2479H46.784C47.0925 57.2479 47.2982 56.9908 47.2982 56.7337V55.1911C48.3266 54.934 49.2522 54.5741 50.0749 54.0085L51.2061 55.1397C51.3089 55.2426 51.4632 55.294 51.566 55.294C51.6689 55.294 51.8231 55.2426 51.926 55.1397L53.7771 53.2886C53.8799 53.1858 53.9313 53.0315 53.9313 52.9287C53.9313 52.7744 53.8799 52.6716 53.7771 52.5687L52.5944 51.3861C53.0572 50.6148 53.4686 49.7407 53.6742 48.7637H55.3711C55.6796 48.7637 55.8853 48.5066 55.8853 48.2495V45.6271C56.0395 45.37 55.8339 45.1643 55.5254 45.1643ZM45.4985 52.2088C42.619 52.2088 40.2537 49.8435 40.2537 46.964C40.2537 44.0845 42.619 41.7192 45.4985 41.7192C48.378 41.7192 50.7433 44.0845 50.7433 46.964C50.7433 49.8435 48.4294 52.2088 45.4985 52.2088Z" fill="#23D395"/>
</svg>
