<svg width="75" height="75" viewBox="0 0 75 75" fill="none" xmlns="http://www.w3.org/2000/svg">
<path d="M35.5915 2.5898C36.539 1.30404 38.461 1.30404 39.4085 2.5898C40.2359 3.71246 41.8488 3.88198 42.8914 2.95587C44.0856 1.89521 45.9656 2.29482 46.625 3.74947C47.2009 5.01961 48.7433 5.52078 49.9557 4.83168C51.3443 4.04248 53.1001 4.82422 53.4428 6.38421C53.742 7.74632 55.1465 8.55721 56.4757 8.13525C57.998 7.652 59.5529 8.78172 59.5637 10.3789C59.5732 11.7734 60.7784 12.8586 62.1663 12.7222C63.7558 12.566 65.0419 13.9943 64.7204 15.5588C64.4397 16.9249 65.3929 18.2369 66.7789 18.3921C68.3661 18.5698 69.3271 20.2343 68.6874 21.6977C68.1288 22.9755 68.7884 24.4571 70.1118 24.897C71.6274 25.4009 72.2214 27.2288 71.2913 28.5273C70.4793 29.661 70.8165 31.2474 72.0195 31.9528C73.3972 32.7608 73.5981 34.6722 72.4185 35.749C71.3884 36.6891 71.3884 38.3109 72.4185 39.251C73.5981 40.3278 73.3972 42.2392 72.0195 43.0472C70.8165 43.7526 70.4793 45.339 71.2913 46.4727C72.2214 47.7712 71.6274 49.5991 70.1118 50.103C68.7884 50.5429 68.1288 52.0245 68.6874 53.3023C69.3271 54.7657 68.3661 56.4302 66.7789 56.6079C65.3929 56.7631 64.4397 58.0751 64.7204 59.4412C65.0419 61.0057 63.7558 62.434 62.1663 62.2778C60.7784 62.1414 59.5732 63.2266 59.5637 64.6211C59.5529 66.2183 57.998 67.348 56.4757 66.8647C55.1465 66.4428 53.742 67.2537 53.4428 68.6158C53.1001 70.1758 51.3443 70.9575 49.9557 70.1683C48.7433 69.4792 47.2009 69.9804 46.625 71.2505C45.9656 72.7052 44.0856 73.1048 42.8914 72.0441C41.8488 71.118 40.2359 71.2875 39.4085 72.4102C38.461 73.696 36.539 73.696 35.5915 72.4102C34.7641 71.2875 33.1512 71.118 32.1086 72.0441C30.9144 73.1048 29.0344 72.7052 28.3749 71.2505C27.7991 69.9804 26.2567 69.4792 25.0443 70.1683C23.6557 70.9575 21.8999 70.1758 21.5572 68.6158C21.258 67.2537 19.8535 66.4428 18.5243 66.8647C17.002 67.348 15.4471 66.2183 15.4363 64.6212C15.4268 63.2266 14.2216 62.1414 12.8337 62.2778C11.2442 62.434 9.95813 61.0057 10.2796 59.4412C10.5603 58.0751 9.60706 56.7631 8.22114 56.6079C6.63388 56.4302 5.67288 54.7657 6.31262 53.3023C6.87121 52.0245 6.21156 50.5429 4.88819 50.103C3.37257 49.5991 2.77864 47.7712 3.70866 46.4727C4.52072 45.339 4.18353 43.7526 2.98053 43.0472C1.60278 42.2392 1.40188 40.3278 2.58154 39.251C3.61158 38.3109 3.61158 36.6891 2.58154 35.749C1.40188 34.6722 1.60278 32.7608 2.98053 31.9528C4.18353 31.2474 4.52072 29.661 3.70866 28.5273C2.77864 27.2288 3.37257 25.4009 4.88819 24.897C6.21157 24.4571 6.87121 22.9755 6.31262 21.6977C5.67288 20.2343 6.63388 18.5698 8.22114 18.3921C9.60706 18.2369 10.5603 16.9249 10.2796 15.5588C9.95813 13.9943 11.2442 12.566 12.8337 12.7222C14.2216 12.8586 15.4268 11.7734 15.4363 10.3789C15.4471 8.78172 17.002 7.652 18.5243 8.13525C19.8535 8.55721 21.258 7.74632 21.5572 6.38421C21.8999 4.82422 23.6557 4.04248 25.0443 4.83168C26.2567 5.52078 27.7991 5.01961 28.375 3.74947C29.0344 2.29482 30.9144 1.89521 32.1086 2.95587C33.1512 3.88198 34.7641 3.71246 35.5915 2.5898Z" fill="#EEFAFF"/>
<path d="M58.146 29.777H54.1472C54.1472 29.6521 54.1072 29.5271 54.0722 29.4022C53.7958 28.3226 53.1666 27.3663 52.2845 26.6852C51.4024 26.0042 50.318 25.6375 49.2036 25.6433H48.5538C48.2546 24.8653 47.7266 24.1963 47.0395 23.7245C46.3525 23.2526 45.5385 23 44.705 23C43.8715 23 43.0575 23.2526 42.3704 23.7245C41.6834 24.1963 41.1554 24.8653 40.8561 25.6433H40.2063C39.0937 25.6397 38.0116 26.0074 37.1315 26.6883C36.2515 27.3692 35.6237 28.3242 35.3478 29.4022C35.3128 29.5271 35.2978 29.6521 35.2728 29.777H31.274C30.407 29.7784 29.5757 30.123 28.9622 30.7357C28.3486 31.3483 28.0026 32.179 28 33.0461V64.7016C28.0039 65.5665 28.3489 66.395 28.9601 67.007C29.5712 67.6191 30.3991 67.9653 31.264 67.9706H58.146C59.0126 67.968 59.8431 67.6229 60.4564 67.0105C61.0697 66.3982 61.416 65.5682 61.42 64.7016V33.0461C61.4173 32.179 61.0714 31.3483 60.4578 30.7357C59.8443 30.123 59.013 29.7784 58.146 29.777ZM38.152 30.6718C38.1467 30.4952 38.1652 30.3186 38.2069 30.1469C38.2401 30.0189 38.287 29.8949 38.3469 29.777C38.5141 29.4255 38.7776 29.1286 39.1067 28.9207C39.4358 28.7128 39.8171 28.6024 40.2063 28.6024H43.5353V27.1028C43.5353 26.7926 43.6586 26.4951 43.8779 26.2758C44.0973 26.0564 44.3948 25.9332 44.705 25.9332C45.0152 25.9332 45.3127 26.0564 45.5321 26.2758C45.7514 26.4951 45.8746 26.7926 45.8746 27.1028V28.6024H49.2036C49.5929 28.6024 49.9742 28.7128 50.3033 28.9207C50.6324 29.1286 50.8959 29.4255 51.0631 29.777C51.1209 29.8958 51.1677 30.0196 51.203 30.1469C51.2499 30.3179 51.2734 30.4945 51.273 30.6718V31.1366H38.137L38.152 30.6718ZM44.2051 56.1142H33.8333C33.4515 56.1142 33.0853 55.9625 32.8153 55.6925C32.5454 55.4225 32.3937 55.0564 32.3937 54.6746C32.3937 54.2928 32.5454 53.9266 32.8153 53.6567C33.0853 53.3867 33.4515 53.235 33.8333 53.235H44.2051C44.5869 53.235 44.9531 53.3867 45.2231 53.6567C45.493 53.9266 45.6447 54.2928 45.6447 54.6746C45.6447 55.0564 45.493 55.4225 45.2231 55.6925C44.9531 55.9625 44.5869 56.1142 44.2051 56.1142ZM55.6017 51.1856H33.8333C33.4515 51.1856 33.0853 51.034 32.8153 50.764C32.5454 50.494 32.3937 50.1279 32.3937 49.7461C32.3937 49.3643 32.5454 48.9981 32.8153 48.7281C33.0853 48.4582 33.4515 48.3065 33.8333 48.3065H55.5767C55.9585 48.3065 56.3247 48.4582 56.5947 48.7281C56.8646 48.9981 57.0163 49.3643 57.0163 49.7461C57.0163 50.1279 56.8646 50.494 56.5947 50.764C56.3247 51.034 55.9585 51.1856 55.5767 51.1856H55.6017ZM55.6017 46.2621H33.8333C33.4515 46.2621 33.0853 46.1104 32.8153 45.8405C32.5454 45.5705 32.3937 45.2043 32.3937 44.8225C32.3937 44.4407 32.5454 44.0746 32.8153 43.8046C33.0853 43.5346 33.4515 43.383 33.8333 43.383H55.5767C55.9585 43.383 56.3247 43.5346 56.5947 43.8046C56.8646 44.0746 57.0163 44.4407 57.0163 44.8225C57.0163 45.2043 56.8646 45.5705 56.5947 45.8405C56.3247 46.1104 55.9585 46.2621 55.5767 46.2621H55.6017ZM55.6017 41.3386H33.8333C33.4515 41.3386 33.0853 41.1869 32.8153 40.9169C32.5454 40.647 32.3937 40.2808 32.3937 39.899C32.3937 39.5172 32.5454 39.1511 32.8153 38.8811C33.0853 38.6111 33.4515 38.4594 33.8333 38.4594H55.5767C55.9585 38.4594 56.3247 38.6111 56.5947 38.8811C56.8646 39.1511 57.0163 39.5172 57.0163 39.899C57.0163 40.2808 56.8646 40.647 56.5947 40.9169C56.3247 41.1869 55.9585 41.3386 55.5767 41.3386H55.6017Z" fill="#17B2F3"/>
</svg>
