<svg width="75" height="75" viewBox="0 0 75 75" fill="none" xmlns="http://www.w3.org/2000/svg">
<path d="M35.5915 2.5898C36.539 1.30404 38.461 1.30404 39.4085 2.5898C40.2359 3.71246 41.8488 3.88198 42.8914 2.95587C44.0856 1.89521 45.9656 2.29482 46.625 3.74947C47.2009 5.01961 48.7433 5.52078 49.9557 4.83168C51.3443 4.04248 53.1001 4.82422 53.4428 6.38421C53.742 7.74632 55.1465 8.55721 56.4757 8.13525C57.998 7.652 59.5529 8.78172 59.5637 10.3789C59.5732 11.7734 60.7784 12.8586 62.1663 12.7222C63.7558 12.566 65.0419 13.9943 64.7204 15.5588C64.4397 16.9249 65.3929 18.2369 66.7789 18.3921C68.3661 18.5698 69.3271 20.2343 68.6874 21.6977C68.1288 22.9755 68.7884 24.4571 70.1118 24.897C71.6274 25.4009 72.2214 27.2288 71.2913 28.5273C70.4793 29.661 70.8165 31.2474 72.0195 31.9528C73.3972 32.7608 73.5981 34.6722 72.4185 35.749C71.3884 36.6891 71.3884 38.3109 72.4185 39.251C73.5981 40.3278 73.3972 42.2392 72.0195 43.0472C70.8165 43.7526 70.4793 45.339 71.2913 46.4727C72.2214 47.7712 71.6274 49.5991 70.1118 50.103C68.7884 50.5429 68.1288 52.0245 68.6874 53.3023C69.3271 54.7657 68.3661 56.4302 66.7789 56.6079C65.3929 56.7631 64.4397 58.0751 64.7204 59.4412C65.0419 61.0057 63.7558 62.434 62.1663 62.2778C60.7784 62.1414 59.5732 63.2266 59.5637 64.6211C59.5529 66.2183 57.998 67.348 56.4757 66.8647C55.1465 66.4428 53.742 67.2537 53.4428 68.6158C53.1001 70.1758 51.3443 70.9575 49.9557 70.1683C48.7433 69.4792 47.2009 69.9804 46.625 71.2505C45.9656 72.7052 44.0856 73.1048 42.8914 72.0441C41.8488 71.118 40.2359 71.2875 39.4085 72.4102C38.461 73.696 36.539 73.696 35.5915 72.4102C34.7641 71.2875 33.1512 71.118 32.1086 72.0441C30.9144 73.1048 29.0344 72.7052 28.3749 71.2505C27.7991 69.9804 26.2567 69.4792 25.0443 70.1683C23.6557 70.9575 21.8999 70.1758 21.5572 68.6158C21.258 67.2537 19.8535 66.4428 18.5243 66.8647C17.002 67.348 15.4471 66.2183 15.4363 64.6212C15.4268 63.2266 14.2216 62.1414 12.8337 62.2778C11.2442 62.434 9.95813 61.0057 10.2796 59.4412C10.5603 58.0751 9.60706 56.7631 8.22114 56.6079C6.63388 56.4302 5.67288 54.7657 6.31262 53.3023C6.87121 52.0245 6.21156 50.5429 4.88819 50.103C3.37257 49.5991 2.77864 47.7712 3.70866 46.4727C4.52072 45.339 4.18353 43.7526 2.98053 43.0472C1.60278 42.2392 1.40188 40.3278 2.58154 39.251C3.61158 38.3109 3.61158 36.6891 2.58154 35.749C1.40188 34.6722 1.60278 32.7608 2.98053 31.9528C4.18353 31.2474 4.52072 29.661 3.70866 28.5273C2.77864 27.2288 3.37257 25.4009 4.88819 24.897C6.21157 24.4571 6.87121 22.9755 6.31262 21.6977C5.67288 20.2343 6.63388 18.5698 8.22114 18.3921C9.60706 18.2369 10.5603 16.9249 10.2796 15.5588C9.95813 13.9943 11.2442 12.566 12.8337 12.7222C14.2216 12.8586 15.4268 11.7734 15.4363 10.3789C15.4471 8.78172 17.002 7.652 18.5243 8.13525C19.8535 8.55721 21.258 7.74632 21.5572 6.38421C21.8999 4.82422 23.6557 4.04248 25.0443 4.83168C26.2567 5.52078 27.7991 5.01961 28.375 3.74947C29.0344 2.29482 30.9144 1.89521 32.1086 2.95587C33.1512 3.88198 34.7641 3.71246 35.5915 2.5898Z" fill="#FFF3E2"/>
<path d="M33.4319 39.9473C36.8315 39.9473 39.5875 37.1914 39.5875 33.7918C39.5875 30.3922 36.8315 27.6362 33.4319 27.6362C30.0323 27.6362 27.2764 30.3922 27.2764 33.7918C27.2764 37.1914 30.0323 39.9473 33.4319 39.9473Z" fill="#FF9200"/>
<path d="M36.9045 54.889L37.4832 50.1539C37.7989 47.6812 39.0089 45.5767 40.7977 44.1036C39.5876 42.5779 37.7462 41.6309 35.6944 41.6309H31.1172C27.8027 41.6309 25.0143 44.1036 24.646 47.4181L24.0146 52.6793C23.9094 53.3632 24.3829 53.9946 25.0669 54.1524C27.6974 54.7311 30.5385 54.9942 33.4321 54.9942C34.6422 55.0468 35.7996 54.9942 36.9045 54.889Z" fill="#FF9200"/>
<path d="M64.5779 39.9473C67.9775 39.9473 70.7335 37.1914 70.7335 33.7918C70.7335 30.3922 67.9775 27.6362 64.5779 27.6362C61.1783 27.6362 58.4224 30.3922 58.4224 33.7918C58.4224 37.1914 61.1783 39.9473 64.5779 39.9473Z" fill="#FF9200"/>
<path d="M73.3641 47.3654C72.9959 44.0509 70.1548 41.5781 66.8929 41.5781H62.3157C60.2639 41.5781 58.4225 42.5251 57.2124 44.0509C59.0012 45.524 60.2639 47.6284 60.5269 50.1012L61.1057 54.8362C62.2105 54.9414 63.4206 54.9941 64.578 54.9941C67.5243 54.9941 70.3127 54.6784 72.9432 54.1523C73.6272 53.9944 74.0481 53.3631 73.9955 52.6792L73.3641 47.3654Z" fill="#FF9200"/>
<path d="M58.4224 55.7838L57.7911 50.47C57.4228 47.2081 54.6344 44.7354 51.3199 44.7354H46.7427C43.4282 44.7354 40.6397 47.2081 40.2715 50.47L39.6401 55.7838C39.5349 56.4677 40.0084 57.1517 40.6924 57.2569C43.3229 57.8356 46.164 58.0987 49.0576 58.0987C52.0038 58.0987 54.7922 57.783 57.4228 57.2569C58.0542 57.1517 58.475 56.4677 58.4224 55.7838Z" fill="#FFC373"/>
<path d="M49.0052 43.0513C52.4048 43.0513 55.1607 40.2954 55.1607 36.8958C55.1607 33.4962 52.4048 30.7402 49.0052 30.7402C45.6055 30.7402 42.8496 33.4962 42.8496 36.8958C42.8496 40.2954 45.6055 43.0513 49.0052 43.0513Z" fill="#FFC373"/>
<path d="M54.7924 64.9904L52.1092 64.7799C51.6883 64.7273 51.2674 64.4642 51.1095 64.0433L50.0573 61.5706C49.6364 60.6236 48.2685 60.6236 47.9002 61.5706L46.848 64.0433C46.6902 64.4642 46.3219 64.7273 45.8484 64.7799L43.2178 64.9904C42.1656 65.0956 41.7447 66.3583 42.5339 67.0422L44.5857 68.7784C44.9014 69.0414 45.0592 69.5149 44.954 69.9358L44.3227 72.5664C44.0596 73.566 45.1644 74.3552 46.0588 73.8291L48.3737 72.4086C48.742 72.1981 49.2155 72.1981 49.5838 72.4086L51.8987 73.8291C52.7931 74.3552 53.898 73.566 53.6349 72.5664L53.0036 69.9358C52.8983 69.5149 53.0562 69.0414 53.3718 68.7784L55.4237 67.0422C56.2655 66.3583 55.8446 65.0956 54.7924 64.9904Z" fill="#FF9200"/>
<path d="M70.3656 61.8864L67.6824 61.6759C67.2615 61.6233 66.8406 61.3602 66.6828 60.9393L65.6306 58.4666C65.2097 57.5196 63.8418 57.5196 63.4735 58.4666L62.4213 60.9393C62.2634 61.3602 61.8951 61.6233 61.4216 61.6759L58.7911 61.8864C57.7388 61.9916 57.3179 63.2543 58.1071 63.9382L60.159 65.6744C60.4746 65.9374 60.6325 66.4109 60.5272 66.8318L59.8959 69.4624C59.6328 70.462 60.7377 71.3038 61.6321 70.7251L63.947 69.3046C64.3153 69.0941 64.7888 69.0941 65.1571 69.3046L67.472 70.7251C68.3664 71.2512 69.4712 70.462 69.2081 69.4624L68.5768 66.8318C68.4716 66.4109 68.6294 65.9374 68.9451 65.6744L70.9969 63.9382C71.8387 63.2543 71.4178 61.9916 70.3656 61.8864Z" fill="#FF9200"/>
<path d="M39.2196 61.8864L36.5364 61.6759C36.1155 61.6233 35.6946 61.3602 35.5368 60.9393L34.4846 58.4666C34.0637 57.5196 32.6958 57.5196 32.3275 58.4666L31.2753 60.9393C31.1174 61.3602 30.7491 61.6233 30.2756 61.6759L27.6451 61.8864C26.5928 61.9916 26.1719 63.2543 26.9611 63.9382L29.013 65.6744C29.3286 65.9374 29.4865 66.4109 29.3812 66.8318L28.7499 69.4624C28.4869 70.462 29.5917 71.3038 30.4861 70.7251L32.801 69.3046C33.1693 69.0941 33.6428 69.0941 34.0111 69.3046L36.326 70.7251C37.2204 71.2512 38.3252 70.462 38.0621 69.4624L37.4308 66.8318C37.3256 66.4109 37.4834 65.9374 37.7991 65.6744L39.8509 63.9382C40.6927 63.2543 40.2718 61.9916 39.2196 61.8864Z" fill="#FF9200"/>
</svg>
