<svg width="75" height="76" viewBox="0 0 75 76" fill="none" xmlns="http://www.w3.org/2000/svg">
<path d="M35.5915 2.5898C36.539 1.30404 38.461 1.30404 39.4085 2.5898C40.2359 3.71246 41.8488 3.88198 42.8914 2.95587C44.0856 1.89521 45.9656 2.29482 46.625 3.74947C47.2009 5.01961 48.7433 5.52078 49.9557 4.83168C51.3443 4.04248 53.1001 4.82422 53.4428 6.38421C53.742 7.74632 55.1465 8.55721 56.4757 8.13525C57.998 7.652 59.5529 8.78172 59.5637 10.3789C59.5732 11.7734 60.7784 12.8586 62.1663 12.7222C63.7558 12.566 65.0419 13.9943 64.7204 15.5588C64.4397 16.9249 65.3929 18.2369 66.7789 18.3921C68.3661 18.5698 69.3271 20.2343 68.6874 21.6977C68.1288 22.9755 68.7884 24.4571 70.1118 24.897C71.6274 25.4009 72.2214 27.2288 71.2913 28.5273C70.4793 29.661 70.8165 31.2474 72.0195 31.9528C73.3972 32.7608 73.5981 34.6722 72.4185 35.749C71.3884 36.6891 71.3884 38.3109 72.4185 39.251C73.5981 40.3278 73.3972 42.2392 72.0195 43.0472C70.8165 43.7526 70.4793 45.339 71.2913 46.4727C72.2214 47.7712 71.6274 49.5991 70.1118 50.103C68.7884 50.5429 68.1288 52.0245 68.6874 53.3023C69.3271 54.7657 68.3661 56.4302 66.7789 56.6079C65.3929 56.7631 64.4397 58.0751 64.7204 59.4412C65.0419 61.0057 63.7558 62.434 62.1663 62.2778C60.7784 62.1414 59.5732 63.2266 59.5637 64.6211C59.5529 66.2183 57.998 67.348 56.4757 66.8647C55.1465 66.4428 53.742 67.2537 53.4428 68.6158C53.1001 70.1758 51.3443 70.9575 49.9557 70.1683C48.7433 69.4792 47.2009 69.9804 46.625 71.2505C45.9656 72.7052 44.0856 73.1048 42.8914 72.0441C41.8488 71.118 40.2359 71.2875 39.4085 72.4102C38.461 73.696 36.539 73.696 35.5915 72.4102C34.7641 71.2875 33.1512 71.118 32.1086 72.0441C30.9144 73.1048 29.0344 72.7052 28.3749 71.2505C27.7991 69.9804 26.2567 69.4792 25.0443 70.1683C23.6557 70.9575 21.8999 70.1758 21.5572 68.6158C21.258 67.2537 19.8535 66.4428 18.5243 66.8647C17.002 67.348 15.4471 66.2183 15.4363 64.6212C15.4268 63.2266 14.2216 62.1414 12.8337 62.2778C11.2442 62.434 9.95813 61.0057 10.2796 59.4412C10.5603 58.0751 9.60706 56.7631 8.22114 56.6079C6.63388 56.4302 5.67288 54.7657 6.31262 53.3023C6.87121 52.0245 6.21156 50.5429 4.88819 50.103C3.37257 49.5991 2.77864 47.7712 3.70866 46.4727C4.52072 45.339 4.18353 43.7526 2.98053 43.0472C1.60278 42.2392 1.40188 40.3278 2.58154 39.251C3.61158 38.3109 3.61158 36.6891 2.58154 35.749C1.40188 34.6722 1.60278 32.7608 2.98053 31.9528C4.18353 31.2474 4.52072 29.661 3.70866 28.5273C2.77864 27.2288 3.37257 25.4009 4.88819 24.897C6.21157 24.4571 6.87121 22.9755 6.31262 21.6977C5.67288 20.2343 6.63388 18.5698 8.22114 18.3921C9.60706 18.2369 10.5603 16.9249 10.2796 15.5588C9.95813 13.9943 11.2442 12.566 12.8337 12.7222C14.2216 12.8586 15.4268 11.7734 15.4363 10.3789C15.4471 8.78172 17.002 7.652 18.5243 8.13525C19.8535 8.55721 21.258 7.74632 21.5572 6.38421C21.8999 4.82422 23.6557 4.04248 25.0443 4.83168C26.2567 5.52078 27.7991 5.01961 28.375 3.74947C29.0344 2.29482 30.9144 1.89521 32.1086 2.95587C33.1512 3.88198 34.7641 3.71246 35.5915 2.5898Z" fill="#E4EFFF"/>
<path d="M33.1833 43.0835H28.4667C27.512 43.1902 26.6303 43.6455 25.9906 44.3621C25.3509 45.0787 24.9982 46.0062 25 46.9668V52.9502C25 53.9845 25.4109 54.9765 26.1423 55.7079C26.8737 56.4393 27.8657 56.8502 28.9 56.8502H33.1833C32.9216 55.6961 32.7874 54.5168 32.7833 53.3335V46.6668C32.7812 45.4611 32.9154 44.2591 33.1833 43.0835Z" fill="#046CFF"/>
<path d="M71.5165 43.1001H66.7998C67.0665 44.2702 67.2007 45.4666 67.1998 46.6668V53.3334C67.2031 54.5502 67.069 55.7634 66.7998 56.9501H71.5165C72.4727 56.8436 73.3563 56.3889 73.9987 55.6727C74.6412 54.9565 74.9975 54.0289 74.9998 53.0668V46.9834C75.0012 46.0203 74.6461 45.0906 74.003 44.3736C73.3598 43.6566 72.4741 43.203 71.5165 43.1001Z" fill="#046CFF"/>
<path d="M30.1501 42.25C30.3675 38.0521 32.1853 34.0971 35.2296 31.1985C38.2739 28.2999 42.3132 26.6781 46.5167 26.6667H53.4167C57.6318 26.661 61.6878 28.2752 64.7463 31.1756C67.8049 34.0759 69.632 38.0406 69.85 42.25H71.5167C71.2981 37.6013 69.2974 33.2154 65.93 30.0032C62.5625 26.7909 58.0872 24.9992 53.4334 25H46.5167C41.87 25.0163 37.4072 26.8174 34.0509 30.031C30.6946 33.2446 28.7014 37.625 28.4834 42.2667H30.1501V42.25Z" fill="#046CFF"/>
<path d="M69.8501 57.6998C69.6569 61.6638 68.0285 65.4222 65.2686 68.2741C62.5087 71.1261 58.8056 72.8768 54.8501 73.1998C54.9565 73.4939 55.0128 73.8037 55.0168 74.1164C55.0243 74.3783 54.9789 74.6391 54.8834 74.8831C59.2792 74.545 63.3988 72.6083 66.4636 69.439C69.5284 66.2698 71.326 62.0877 71.5168 57.6831H69.8501V57.6998Z" fill="#046CFF"/>
<path d="M50.6836 68.9335C54.1615 68.9357 57.5412 67.7806 60.2902 65.6502C63.0392 63.5198 65.0012 60.5352 65.8669 57.1669C65.9156 57.0083 65.9545 56.8468 65.9836 56.6835L66.1336 55.9669V55.6335L66.2336 54.9002C66.2336 54.6502 66.2336 54.4002 66.2336 54.1335C66.2336 53.8669 66.2336 53.5502 66.2336 53.2502V46.6669C66.2585 46.2005 66.2585 45.7332 66.2336 45.2669C66.1982 44.8137 66.137 44.363 66.0503 43.9169C66.0503 43.7002 66.0503 43.4669 65.9169 43.2502C65.7836 43.0335 65.9169 42.9169 65.8003 42.7502C64.9157 39.4004 62.9456 36.4383 60.1984 34.3273C57.4511 32.2163 54.0816 31.0756 50.6169 31.0835H49.2169C45.7441 31.0841 42.3699 32.2385 39.6246 34.3654C36.8793 36.4923 34.9185 39.471 34.0503 42.8335C34.0503 43.0002 33.9669 43.1669 33.9336 43.3335C33.9003 43.5002 33.8336 43.7835 33.8003 44.0002C33.6599 44.8819 33.5986 45.7743 33.6169 46.6669V53.3335C33.618 54.244 33.6961 55.1528 33.8503 56.0502L34.0003 56.7669C34.0294 56.9302 34.0683 57.0916 34.1169 57.2502C34.982 60.6158 36.9415 63.5983 39.6871 65.7284C42.4327 67.8585 45.8086 69.0153 49.2836 69.0168L50.6836 68.9335ZM42.9003 60.6002C42.9751 60.5205 43.0655 60.4569 43.1658 60.4135C43.2661 60.3701 43.3743 60.3477 43.4836 60.3477C43.5929 60.3477 43.7011 60.3701 43.8014 60.4135C43.9018 60.4569 43.9921 60.5205 44.0669 60.6002C45.5291 62.0586 47.5101 62.8777 49.5753 62.8777C51.6405 62.8777 53.6214 62.0586 55.0836 60.6002C55.1611 60.5221 55.2532 60.4601 55.3548 60.4178C55.4563 60.3755 55.5653 60.3537 55.6753 60.3537C55.7853 60.3537 55.8942 60.3755 55.9957 60.4178C56.0973 60.4601 56.1895 60.5221 56.2669 60.6002C56.4207 60.7588 56.5067 60.971 56.5067 61.1919C56.5067 61.4127 56.4207 61.6249 56.2669 61.7835C54.4896 63.5342 52.095 64.5155 49.6003 64.5155C47.1055 64.5155 44.7109 63.5342 42.9336 61.7835C42.7861 61.6337 42.7007 61.4336 42.6945 61.2234C42.6883 61.0132 42.7618 60.8084 42.9003 60.6502V60.6002Z" fill="#80B4FF"/>
<path d="M52.4668 72.3998H47.3002C46.8449 72.3998 46.4082 72.5807 46.0863 72.9026C45.7644 73.2246 45.5835 73.6612 45.5835 74.1165C45.5835 74.5718 45.7644 75.0084 46.0863 75.3304C46.4082 75.6523 46.8449 75.8332 47.3002 75.8332H52.4668C52.7894 75.8419 53.1076 75.7568 53.3828 75.5881C53.6579 75.4195 53.8782 75.1746 54.0168 74.8832C54.1384 74.646 54.2012 74.383 54.2002 74.1165C54.2001 73.8174 54.1195 73.5238 53.9668 73.2665C53.8202 72.9984 53.6028 72.7758 53.3383 72.623C53.0737 72.4701 52.7723 72.3929 52.4668 72.3998Z" fill="#046CFF"/>
</svg>
